<svg xmlns="http://www.w3.org/2000/svg" width="112" height="116" fill="none" viewBox="0 0 112 116">
<path stroke="#6CC417" stroke-linecap="round" stroke-linejoin="round" stroke-width="10" d="M103 106 82.667 85.667M14 57.056a40.057 40.057 0 0 0 55.384 37.006A40.056 40.056 0 1 0 14 57.056"/>
<path stroke="#6CC417" stroke-linecap="round" stroke-linejoin="round" stroke-width="14" d="M104.333 108.333 84 88"/>
<path fill="#6CC417" d="M64.539 59.054c-4.494 6.084-7.415 13.912-8.284 18.853a1.66 1.66 0 0 0 1.848 1.96c4.062-.46 13.121-2.504 20.172-11.597 3.347-4.315 6.243-11.427 7.825-16.254.456-1.393-.765-2.775-2.223-2.626-5.349.548-13.256 1.43-19.338 9.664m-21.078 0c4.494 6.084 7.415 13.912 8.284 18.853a1.66 1.66 0 0 1-1.848 1.96c-4.062-.46-13.121-2.504-20.172-11.597-3.347-4.315-6.244-11.427-7.824-16.254-.457-1.393.764-2.775 2.222-2.626 5.349.548 13.256 1.43 19.338 9.664M109.5 8.5a6.5 6.5 0 1 1-13 0 6.5 6.5 0 0 1 13 0"/>
<path fill="#6CC417" d="M99 9c-10.8 1.6-17.833 11.333-20 16 4.667 6.667 13.1 17.5 9.5 7.5s6.5-18.167 12-21c4-1.5 9.3-4.1-1.5-2.5M0 6.5a6.5 6.5 0 1 0 13 0 6.5 6.5 0 0 0-13 0"/>
<path fill="#6CC417" d="M10.5 7c10.8 1.6 17.833 11.333 20 16-4.667 6.667-13.1 17.5-9.5 7.5s-6.5-18.167-12-21C5 8-.3 5.4 10.5 7"/>
</svg>